# Blender v3.3.1 OBJ File: ''
# www.blender.org
mtllib double_cone.mtl
o Cone_Cone.001
v 0.000000 -0.000000 0.500000
v 0.353553 -0.000000 0.353553
v 0.500000 0.000000 0.000000
v 0.353553 0.000000 -0.353553
v 0.000000 0.000000 -0.500000
v -0.353553 0.000000 -0.353553
v -0.500000 0.000000 0.000000
v -0.353553 -0.000000 0.353553
v 0.000000 -1.000000 -0.000000
vt 0.250000 0.490000
vt 0.250000 0.250000
vt 0.419706 0.419706
vt 0.490000 0.250000
vt 0.419706 0.080294
vt 0.250000 0.010000
vt 0.080294 0.080294
vt 0.010000 0.250000
vt 0.750000 0.490000
vt 0.919706 0.419706
vt 0.990000 0.250000
vt 0.919706 0.080294
vt 0.750000 0.010000
vt 0.580294 0.080294
vt 0.510000 0.250000
vt 0.580294 0.419706
vt 0.080294 0.419706
vn 0.3474 -0.4194 0.8387
vn 0.8387 -0.4194 0.3474
vn 0.8387 -0.4194 -0.3474
vn 0.3474 -0.4194 -0.8387
vn -0.3474 -0.4194 -0.8387
vn -0.8387 -0.4194 -0.3474
vn 0.0000 1.0000 0.0000
vn -0.8387 -0.4194 0.3474
vn -0.3474 -0.4194 0.8387
usemtl None
s off
f 1/1/1 9/2/1 2/3/1
f 2/3/2 9/2/2 3/4/2
f 3/4/3 9/2/3 4/5/3
f 4/5/4 9/2/4 5/6/4
f 5/6/5 9/2/5 6/7/5
f 6/7/6 9/2/6 7/8/6
f 1/9/7 2/10/7 3/11/7 4/12/7 5/13/7 6/14/7 7/15/7 8/16/7
f 7/8/8 9/2/8 8/17/8
f 8/17/9 9/2/9 1/1/9
o Cone.001_Cone.002
v 0.000000 0.000000 -0.500000
v 0.353553 0.000000 -0.353553
v 0.500000 0.000000 0.000000
v 0.353553 0.000000 0.353553
v 0.000000 0.000000 0.500000
v -0.353553 0.000000 0.353553
v -0.500000 0.000000 0.000000
v -0.353553 0.000000 -0.353553
v 0.000000 1.000000 0.000000
vt 0.250000 0.490000
vt 0.250000 0.250000
vt 0.419706 0.419706
vt 0.490000 0.250000
vt 0.419706 0.080294
vt 0.250000 0.010000
vt 0.080294 0.080294
vt 0.010000 0.250000
vt 0.750000 0.490000
vt 0.919706 0.419706
vt 0.990000 0.250000
vt 0.919706 0.080294
vt 0.750000 0.010000
vt 0.580294 0.080294
vt 0.510000 0.250000
vt 0.580294 0.419706
vt 0.080294 0.419706
vn 0.3474 0.4194 -0.8387
vn 0.8387 0.4194 -0.3474
vn 0.8387 0.4194 0.3474
vn 0.3474 0.4194 0.8387
vn -0.3474 0.4194 0.8387
vn -0.8387 0.4194 0.3474
vn 0.0000 -1.0000 0.0000
vn -0.8387 0.4194 -0.3474
vn -0.3474 0.4194 -0.8387
usemtl None
s off
f 10/18/10 18/19/10 11/20/10
f 11/20/11 18/19/11 12/21/11
f 12/21/12 18/19/12 13/22/12
f 13/22/13 18/19/13 14/23/13
f 14/23/14 18/19/14 15/24/14
f 15/24/15 18/19/15 16/25/15
f 10/26/16 11/27/16 12/28/16 13/29/16 14/30/16 15/31/16 16/32/16 17/33/16
f 16/25/17 18/19/17 17/34/17
f 17/34/18 18/19/18 10/18/18
